# xmcd CD database file
#
# Track frame offsets:
#	150
#	10693
#	19611
#	47440
#	59056
#	70990
#	93154
#	103458
#	126205
#	136154
#	155313
#	166788
#	191142
#	209739
#	221712
#	235018
#	251094
#	263317
#
# Disc length: 3679 seconds
#
# Revision: 2
# Processed by: cddbd v1.5.2PL0 Copyright (c) Steve Scherf et al.
# Submitted via: CDex 1.82
#
DISCID=fa0e5d12
DTITLE=Various Artist - The very Best of Latin Jazz Disc 2
DYEAR=2015
DGENRE=Jazz
TTITLE0=Perez Prado - Patricia
TTITLE1=Joao Gilberto - Desafinado
TTITLE2=Stan Getz and Charlie Byrd - Samba du UmaNota so
TTITLE3=Sergio Mendes - What is this thing called love
TTITLE4=Celia Cruz - Marcianita
TTITLE5=Mongo Santamaria - All the Things you are
TTITLE6=Ray Barreto - Jazz Pachanga
TTITLE7=Kenny Dorham - Basheers Dream
TTITLE8=Mark Murphy - Its like Love
TTITLE9=Eddie Lockjaw Davis - Jazz-a-Samba
TTITLE10=Art Moony - Caravan
TTITLE11=Cal Tjader - Green Dolphin Street
TTITLE12=Herbie Mann - Blues Walk
TTITLE13=Dizzy Gillespie - Tin Tin Deo
TTITLE14=The George Sheering Quintedt - Estampa Cubana
TTITLE15=Stan Getz and Charlie Byrd - Samba Dees Days
TTITLE16=Quicy Jones - Boogie Bossa Nova
TTITLE17=Tito Puento and Mongo Santamaria - Mambo Macoco
EXTD=YEAR: 2015
EXTT0=
EXTT1=
EXTT2=
EXTT3=
EXTT4=
EXTT5=
EXTT6=
EXTT7=
EXTT8=
EXTT9=
EXTT10=
EXTT11=
EXTT12=
EXTT13=
EXTT14=
EXTT15=
EXTT16=
EXTT17=
PLAYORDER=
